<svg width="206" height="62" viewBox="0 0 206 62" fill="none" xmlns="http://www.w3.org/2000/svg">
<path d="M14.0341 27.7354C10.2543 27.7354 7.09286 26.5066 4.5497 24.0491C2.00653 21.5681 0.734951 18.3733 0.734951 14.4645C0.734951 10.5324 2.02987 7.30249 4.61969 4.77471C7.23285 2.22352 10.3943 0.94792 14.1041 0.94792C16.4139 0.94792 18.5604 1.43943 20.5436 2.42246C22.5268 3.38208 24.0901 4.68108 25.2333 6.31946L21.7686 9.72495C19.7387 7.22057 17.2772 5.96838 14.384 5.96838C12.0509 5.96838 10.091 6.77587 8.50444 8.39084C6.91788 9.98241 6.1246 12.007 6.1246 14.4645C6.1246 16.8519 6.90621 18.8297 8.46944 20.3978C10.0327 21.966 11.9925 22.7501 14.3491 22.7501C17.3589 22.7501 19.867 21.4862 21.8736 18.9584L25.4433 22.2234C24.2301 23.8852 22.6085 25.2193 20.5786 26.2258C18.5721 27.2322 16.3906 27.7354 14.0341 27.7354Z" fill="white"/>
<path d="M26.7299 17.7647C26.7299 14.9327 27.6865 12.557 29.5997 10.6378C31.5362 8.67171 33.9861 7.68868 36.9492 7.68868C39.9124 7.68868 42.3622 8.67171 44.2987 10.6378C46.2119 12.557 47.1685 14.9327 47.1685 17.7647C47.1685 20.6202 46.2119 23.0075 44.2987 24.9268C42.3622 26.8694 39.9124 27.8407 36.9492 27.8407C33.9861 27.8407 31.5362 26.8694 29.5997 24.9268C27.6865 23.0075 26.7299 20.6202 26.7299 17.7647ZM33.1695 21.6617C34.1727 22.715 35.4327 23.2416 36.9492 23.2416C38.4191 23.2416 39.6674 22.715 40.694 21.6617C41.7206 20.5617 42.2339 19.2627 42.2339 17.7647C42.2339 16.2668 41.7206 14.9795 40.694 13.9028C39.6674 12.8496 38.4191 12.323 36.9492 12.323C35.4327 12.323 34.1727 12.8496 33.1695 13.9028C32.1662 14.9327 31.6646 16.22 31.6646 17.7647C31.6646 19.2861 32.1662 20.5851 33.1695 21.6617Z" fill="white"/>
<path d="M73.3213 7.68868C75.6078 7.68868 77.4627 8.40255 78.8859 9.83028C80.3558 11.258 81.0907 13.2475 81.0907 15.7987V27.3492H76.1561V16.7115C76.1561 15.2837 75.8061 14.1837 75.1061 13.4113C74.4295 12.6389 73.5079 12.2527 72.3413 12.2527C71.0814 12.2527 70.0665 12.674 69.2965 13.5166C68.5266 14.3358 68.1416 15.4476 68.1416 16.8519V27.3492H63.2069V16.7466C63.2069 15.3422 62.857 14.2422 62.157 13.4464C61.4804 12.6506 60.5471 12.2527 59.3572 12.2527C58.1439 12.2527 57.1407 12.674 56.3474 13.5166C55.5774 14.3592 55.1925 15.4827 55.1925 16.887V27.3492H50.2578V8.2153H55.0875V10.9537C55.6241 9.9473 56.4174 9.15152 57.4673 8.56638C58.5172 7.95784 59.6605 7.66527 60.8971 7.68868C62.1103 7.68868 63.2186 7.98125 64.2219 8.56638C65.2485 9.15152 66.0067 9.98241 66.4967 11.0591C67.1967 10.0058 68.1533 9.18663 69.3665 8.60149C70.5798 7.99295 71.898 7.68868 73.3213 7.68868Z" fill="white"/>
<path d="M108.001 7.68868C110.288 7.68868 112.143 8.40255 113.566 9.83028C115.036 11.258 115.771 13.2475 115.771 15.7987V27.3492H110.836V16.7115C110.836 15.2837 110.486 14.1837 109.786 13.4113C109.11 12.6389 108.188 12.2527 107.021 12.2527C105.762 12.2527 104.747 12.674 103.977 13.5166C103.207 14.3358 102.822 15.4476 102.822 16.8519V27.3492H97.887V16.7466C97.887 15.3422 97.5371 14.2422 96.8371 13.4464C96.1605 12.6506 95.2272 12.2527 94.0373 12.2527C92.8241 12.2527 91.8208 12.674 91.0275 13.5166C90.2576 14.3592 89.8726 15.4827 89.8726 16.887V27.3492H84.9379V8.2153H89.7676V10.9537C90.3042 9.9473 91.0975 9.15152 92.1474 8.56638C93.1974 7.95784 94.3406 7.66527 95.5772 7.68868C96.7905 7.68868 97.8987 7.98125 98.902 8.56638C99.9286 9.15152 100.687 9.98241 101.177 11.0591C101.877 10.0058 102.833 9.18663 104.047 8.60149C105.26 7.99295 106.578 7.68868 108.001 7.68868Z" fill="white"/>
<path d="M134.527 25.5587C132.987 27.0567 130.852 27.8056 128.122 27.8056C125.393 27.8056 123.246 27.0567 121.683 25.5587C120.143 24.0374 119.373 21.9426 119.373 19.2744V8.2153H124.308V19.2744C124.308 20.4914 124.646 21.4628 125.323 22.1883C125.999 22.9139 126.933 23.2767 128.122 23.2767C129.312 23.2767 130.246 22.9139 130.922 22.1883C131.599 21.4628 131.937 20.4914 131.937 19.2744V8.2153H136.872V19.2744C136.872 21.966 136.09 24.0608 134.527 25.5587Z" fill="white"/>
<path d="M145.664 27.3492H140.73V8.2153H145.559V10.8835C146.073 9.9239 146.866 9.15152 147.939 8.56638C149.012 7.98125 150.214 7.68868 151.544 7.68868C153.621 7.68868 155.382 8.37914 156.829 9.76006C158.275 11.141 158.999 13.107 158.999 15.6582V27.3492H154.064V16.9923C154.064 15.4944 153.702 14.3358 152.979 13.5166C152.256 12.674 151.276 12.2527 150.039 12.2527C148.733 12.2527 147.671 12.7091 146.854 13.622C146.061 14.5114 145.664 15.6699 145.664 17.0977V27.3492Z" fill="white"/>
<path d="M168.432 3.0193C168.432 3.8853 168.141 4.61087 167.557 5.196C166.974 5.78114 166.251 6.07371 165.387 6.07371C164.524 6.07371 163.801 5.78114 163.218 5.196C162.634 4.61087 162.343 3.8853 162.343 3.0193C162.343 2.1533 162.634 1.43943 163.218 0.877704C163.801 0.292568 164.524 0 165.387 0C166.251 0 166.974 0.292568 167.557 0.877704C168.141 1.43943 168.432 2.1533 168.432 3.0193ZM167.837 8.2153V27.3492H162.903V8.2153H167.837Z" fill="white"/>
<path d="M184.165 22.3288L185.634 26.2258C184.048 27.279 182.17 27.8056 180 27.8056C177.807 27.8056 176.15 27.1737 175.03 25.9098C173.91 24.6225 173.35 22.7384 173.35 20.2574V12.3581H170.236V8.2153H173.385V1.43943H178.285V8.2153H184.585V12.3581H178.285V19.9414C178.285 22.1883 179.183 23.3118 180.98 23.3118C181.96 23.3118 183.021 22.9841 184.165 22.3288Z" fill="white"/>
<path d="M196.271 20.6787L200.61 8.2153H206L198.336 28.2971C197.402 30.7547 196.282 32.5686 194.976 33.7389C193.692 34.9092 192.118 35.4943 190.251 35.4943C188.804 35.4943 187.58 35.1783 186.576 34.5464L187.416 30.4036C188.28 30.8249 189.096 31.0356 189.866 31.0356C191.383 31.0356 192.619 30.0291 193.576 28.0163L193.961 27.1386L185.631 8.2153H191.336L196.271 20.6787Z" fill="white"/>
<path d="M9.79935 61.9298C7.76949 61.9298 5.89128 61.5085 4.16472 60.6659C2.43817 59.8233 1.04993 58.6296 0 57.0849L2.9748 53.4687C4.70136 55.8795 6.98787 57.0849 9.83435 57.0849C10.9076 57.0849 11.7942 56.8274 12.4942 56.3125C13.1941 55.7976 13.5441 55.1305 13.5441 54.3113C13.5441 53.2347 12.7625 52.3336 11.1993 51.608C11.0126 51.5144 10.161 51.175 8.64443 50.5899C7.45451 50.1217 6.43957 49.6536 5.59963 49.1855C2.86981 47.6174 1.5049 45.4641 1.5049 42.7256C1.5049 40.5489 2.32151 38.7467 3.95474 37.319C5.6113 35.8679 7.73449 35.1423 10.3243 35.1423C13.6841 35.1423 16.5189 36.3126 18.8288 38.6531L16.0639 42.4448C15.364 41.6958 14.489 41.1107 13.4391 40.6894C12.4125 40.2447 11.3976 40.0223 10.3943 40.0223C9.36771 40.0223 8.5511 40.2564 7.94447 40.7245C7.36118 41.1692 7.06953 41.766 7.06953 42.515C7.06953 43.5214 7.76949 44.3757 9.16939 45.0779L11.7242 46.2013C13.1708 46.8099 14.2207 47.2663 14.874 47.5706C17.8138 48.9983 19.2837 51.1516 19.2837 54.0305C19.2837 56.3476 18.4088 58.2434 16.6589 59.718C14.909 61.1925 12.6225 61.9298 9.79935 61.9298Z" fill="white"/>
<path d="M27.2795 61.5085H22.3448V34.8263H27.1395V44.8672C27.6528 43.9778 28.4577 43.2523 29.5543 42.6905C30.6509 42.1288 31.8525 41.8479 33.1591 41.8479C35.2123 41.8479 36.9622 42.5384 38.4087 43.9193C39.8553 45.3002 40.5786 47.2663 40.5786 49.8175V61.5085H35.6439V51.1516C35.6439 49.6536 35.2823 48.4951 34.559 47.6759C33.859 46.8333 32.8908 46.412 31.6542 46.412C30.3476 46.412 29.286 46.8684 28.4694 47.7812C27.6761 48.6706 27.2795 49.8292 27.2795 51.2569V61.5085Z" fill="white"/>
<path d="M43.3985 51.924C43.3985 49.0919 44.3551 46.7163 46.2683 44.797C48.2049 42.831 50.6547 41.8479 53.6178 41.8479C56.581 41.8479 59.0308 42.831 60.9674 44.797C62.8806 46.7163 63.8372 49.0919 63.8372 51.924C63.8372 54.7794 62.8806 57.1668 60.9674 59.086C59.0308 61.0287 56.581 62 53.6178 62C50.6547 62 48.2049 61.0287 46.2683 59.086C44.3551 57.1668 43.3985 54.7794 43.3985 51.924ZM49.8381 55.821C50.8414 56.8742 52.1013 57.4008 53.6178 57.4008C55.0877 57.4008 56.336 56.8742 57.3626 55.821C58.3892 54.7209 58.9025 53.4219 58.9025 51.924C58.9025 50.426 58.3892 49.1387 57.3626 48.0621C56.336 47.0088 55.0877 46.4822 53.6178 46.4822C52.1013 46.4822 50.8414 47.0088 49.8381 48.0621C48.8348 49.0919 48.3332 50.3792 48.3332 51.924C48.3332 53.4453 48.8348 54.7443 49.8381 55.821Z" fill="white"/>
<path d="M75.1998 61.4734H70.8951L64.3855 42.3746H69.5652L73.3799 54.9082L77.6846 42.3746H81.1494L85.5941 54.9082L89.3039 42.3746H94.4835L88.044 61.4734H83.7392L79.4345 49.5015L75.1998 61.4734Z" fill="white"/>
<path d="M105.169 61.9298C102.229 61.9298 99.8029 60.9936 97.8897 59.1211C95.9998 57.2721 95.0548 54.873 95.0548 51.924C95.0548 48.9749 96.0114 46.5758 97.9247 44.7268C99.8612 42.831 102.323 41.883 105.309 41.883C107.269 41.883 109.042 42.3512 110.629 43.2874C112.239 44.2236 113.429 45.5343 114.199 47.2195L110.244 49.3962C109.077 47.4535 107.456 46.4822 105.379 46.4822C103.793 46.4822 102.498 47.0088 101.494 48.0621C100.468 49.0919 99.9545 50.3792 99.9545 51.924C99.9545 53.5155 100.456 54.8262 101.459 55.8561C102.486 56.8859 103.758 57.4008 105.274 57.4008C106.277 57.4008 107.234 57.1317 108.144 56.5933C109.054 56.055 109.719 55.3646 110.139 54.522L114.129 56.8742C113.312 58.419 112.099 59.6478 110.489 60.5606C108.902 61.4734 107.129 61.9298 105.169 61.9298Z" fill="white"/>
<path d="M131.227 44.6566V42.3746H135.917V61.5085H131.227V59.2967C129.594 61.0755 127.564 61.9649 125.137 61.9649C122.384 61.9649 120.121 61.0053 118.348 59.086C116.575 57.1668 115.688 54.756 115.688 51.8537C115.688 48.9749 116.586 46.5992 118.383 44.7268C120.179 42.831 122.431 41.883 125.137 41.883C127.517 41.883 129.547 42.8076 131.227 44.6566ZM131.297 51.924C131.297 50.426 130.784 49.127 129.757 48.027C128.754 46.9503 127.482 46.412 125.942 46.412C124.379 46.412 123.096 46.9503 122.093 48.027C121.113 49.1036 120.623 50.4026 120.623 51.924C120.623 53.4687 121.124 54.7794 122.128 55.8561C123.131 56.9327 124.402 57.4711 125.942 57.4711C127.482 57.4711 128.754 56.9327 129.757 55.8561C130.784 54.756 131.297 53.4453 131.297 51.924Z" fill="white"/>
<path d="M146.337 62C143.024 62 140.399 60.7712 138.463 58.3136L141.088 55.189C141.764 56.0082 142.569 56.6636 143.503 57.1551C144.459 57.6232 145.416 57.8572 146.372 57.8572C147.119 57.8572 147.737 57.6817 148.227 57.3306C148.741 56.9795 148.997 56.5348 148.997 55.9965C148.997 55.3177 148.542 54.7677 147.632 54.3464C147.352 54.2294 146.594 53.9368 145.357 53.4687C144.261 53.0708 143.444 52.7314 142.908 52.4506C140.714 51.3973 139.618 49.7473 139.618 47.5003C139.618 45.8386 140.271 44.4576 141.578 43.3576C142.861 42.2809 144.588 41.7426 146.757 41.7426C149.464 41.7426 151.692 42.6554 153.442 44.481L150.992 47.6759C149.662 46.412 148.204 45.78 146.617 45.78C145.987 45.78 145.462 45.9439 145.042 46.2716C144.646 46.5758 144.448 46.9503 144.448 47.395C144.448 48.1908 145.007 48.7759 146.127 49.1504C148.624 50.0866 150.152 50.7069 150.712 51.0112C152.859 52.1346 153.932 53.7496 153.932 55.8561C153.932 57.6583 153.232 59.1328 151.832 60.2797C150.479 61.4266 148.647 62 146.337 62Z" fill="white"/>
<path d="M175.389 51.5027C175.389 52.0878 175.331 52.8134 175.214 53.6794H160.9C161.6 56.3944 163.455 57.7519 166.465 57.7519C168.682 57.7519 170.735 57.1083 172.625 55.821L174.585 59.2967C172.158 61.0521 169.382 61.9298 166.255 61.9298C162.919 61.9298 160.352 60.9585 158.556 59.0158C156.782 57.0966 155.896 54.7326 155.896 51.924C155.896 48.9983 156.817 46.5992 158.661 44.7268C160.504 42.831 162.895 41.883 165.835 41.883C168.612 41.883 170.898 42.749 172.695 44.481C174.491 46.213 175.389 48.5536 175.389 51.5027ZM165.835 45.9907C164.598 45.9907 163.537 46.3535 162.65 47.079C161.787 47.7812 161.204 48.7525 160.9 49.993H170.595C170.361 48.7525 169.825 47.7812 168.985 47.079C168.145 46.3535 167.095 45.9907 165.835 45.9907Z" fill="white"/>
</svg>
