<svg width="22" height="19" viewBox="0 0 22 19" fill="none" xmlns="http://www.w3.org/2000/svg">
<path d="M16 17.5H21V15.5C21 14.8765 20.8057 14.2686 20.4441 13.7606C20.0826 13.2527 19.5718 12.87 18.9827 12.6658C18.3937 12.4615 17.7556 12.4459 17.1573 12.621C16.5589 12.7962 16.03 13.1534 15.644 13.643M16 17.5H6M16 17.5V15.5C16 14.844 15.874 14.217 15.644 13.643M15.644 13.643C15.2726 12.715 14.6318 11.9195 13.804 11.3591C12.9762 10.7988 11.9996 10.4993 11 10.4993C10.0004 10.4993 9.02376 10.7988 8.196 11.3591C7.36825 11.9195 6.72736 12.715 6.356 13.643M6 17.5H1V15.5C1.00005 14.8765 1.19434 14.2686 1.55586 13.7606C1.91739 13.2527 2.42819 12.87 3.01725 12.6658C3.60632 12.4615 4.24438 12.4459 4.84274 12.621C5.4411 12.7962 5.97003 13.1534 6.356 13.643M6 17.5V15.5C6 14.844 6.126 14.217 6.356 13.643M14 4.5C14 5.29565 13.6839 6.05871 13.1213 6.62132C12.5587 7.18393 11.7956 7.5 11 7.5C10.2044 7.5 9.44129 7.18393 8.87868 6.62132C8.31607 6.05871 8 5.29565 8 4.5C8 3.70435 8.31607 2.94129 8.87868 2.37868C9.44129 1.81607 10.2044 1.5 11 1.5C11.7956 1.5 12.5587 1.81607 13.1213 2.37868C13.6839 2.94129 14 3.70435 14 4.5ZM20 7.5C20 8.03043 19.7893 8.53914 19.4142 8.91421C19.0391 9.28929 18.5304 9.5 18 9.5C17.4696 9.5 16.9609 9.28929 16.5858 8.91421C16.2107 8.53914 16 8.03043 16 7.5C16 6.96957 16.2107 6.46086 16.5858 6.08579C16.9609 5.71071 17.4696 5.5 18 5.5C18.5304 5.5 19.0391 5.71071 19.4142 6.08579C19.7893 6.46086 20 6.96957 20 7.5ZM6 7.5C6 8.03043 5.78929 8.53914 5.41421 8.91421C5.03914 9.28929 4.53043 9.5 4 9.5C3.46957 9.5 2.96086 9.28929 2.58579 8.91421C2.21071 8.53914 2 8.03043 2 7.5C2 6.96957 2.21071 6.46086 2.58579 6.08579C2.96086 5.71071 3.46957 5.5 4 5.5C4.53043 5.5 5.03914 5.71071 5.41421 6.08579C5.78929 6.46086 6 6.96957 6 7.5Z" stroke="#95B4F0" stroke-width="2" stroke-linecap="round" stroke-linejoin="round"/>
</svg>
