<svg width="21" height="21" viewBox="0 0 21 21" fill="none" xmlns="http://www.w3.org/2000/svg">
<path d="M1.16669 10.5L3.16669 8.5M3.16669 8.5L10.1667 1.5L17.1667 8.5M3.16669 8.5V18.5C3.16669 18.7652 3.27204 19.0196 3.45958 19.2071C3.64712 19.3946 3.90147 19.5 4.16669 19.5H7.16669M17.1667 8.5L19.1667 10.5M17.1667 8.5V18.5C17.1667 18.7652 17.0613 19.0196 16.8738 19.2071C16.6863 19.3946 16.4319 19.5 16.1667 19.5H13.1667M7.16669 19.5C7.4319 19.5 7.68626 19.3946 7.87379 19.2071C8.06133 19.0196 8.16669 18.7652 8.16669 18.5V14.5C8.16669 14.2348 8.27204 13.9804 8.45958 13.7929C8.64712 13.6054 8.90147 13.5 9.16669 13.5H11.1667C11.4319 13.5 11.6863 13.6054 11.8738 13.7929C12.0613 13.9804 12.1667 14.2348 12.1667 14.5V18.5C12.1667 18.7652 12.272 19.0196 12.4596 19.2071C12.6471 19.3946 12.9015 19.5 13.1667 19.5M7.16669 19.5H13.1667" stroke="#456197" stroke-width="2" stroke-linecap="round" stroke-linejoin="round"/>
</svg>
