<svg width="97" height="18" viewBox="0 0 97 18" fill="none" xmlns="http://www.w3.org/2000/svg">
<path d="M2.12187 13.8097H0V0.346154H1.17261L6.94262 8.59919L12.6754 0.346154H13.8852V13.8097H11.7261V5.19231L7.24043 11.6053H6.60759L2.12187 5.19231V13.8097Z" fill="white"/>
<path d="M17.4148 2.69636C17.0177 2.69636 16.6827 2.56883 16.4097 2.31376C16.1367 2.04656 16.0002 1.71862 16.0002 1.32996C16.0002 0.953441 16.1367 0.637652 16.4097 0.38259C16.6827 0.12753 17.0177 0 17.4148 0C17.7994 0 18.1221 0.12753 18.3826 0.38259C18.6432 0.637652 18.7735 0.953441 18.7735 1.32996C18.7735 1.71862 18.6432 2.04656 18.3826 2.31376C18.1221 2.56883 17.7994 2.69636 17.4148 2.69636ZM18.4013 3.98988V13.8097H16.3538V3.98988H18.4013Z" fill="white"/>
<path d="M28.2983 5.35627V0H30.3643V13.8097H28.3355V12.4433C27.4669 13.5121 26.3439 14.0466 24.9666 14.0466C23.5148 14.0466 22.3173 13.5547 21.3743 12.5708C20.4188 11.5628 19.9411 10.336 19.9411 8.89069C19.9411 7.45749 20.4188 6.24291 21.3743 5.24696C22.3173 4.25101 23.5086 3.75304 24.948 3.75304C26.2757 3.75304 27.3925 4.28745 28.2983 5.35627ZM28.4472 8.89069C28.4472 7.96761 28.1494 7.19028 27.5538 6.5587C26.9582 5.91498 26.1826 5.59312 25.2272 5.59312C24.2717 5.59312 23.4962 5.91498 22.9005 6.5587C22.3049 7.19028 22.0071 7.96761 22.0071 8.89069C22.0071 9.83806 22.3049 10.6275 22.9005 11.2591C23.4962 11.8907 24.2717 12.2065 25.2272 12.2065C26.1826 12.2065 26.9582 11.8907 27.5538 11.2591C28.1494 10.6275 28.4472 9.83806 28.4472 8.89069Z" fill="white"/>
<path d="M33.9887 2.69636C33.5916 2.69636 33.2566 2.56883 32.9836 2.31376C32.7106 2.04656 32.5741 1.71862 32.5741 1.32996C32.5741 0.953441 32.7106 0.637652 32.9836 0.38259C33.2566 0.12753 33.5916 0 33.9887 0C34.3733 0 34.696 0.12753 34.9565 0.38259C35.2171 0.637652 35.3474 0.953441 35.3474 1.32996C35.3474 1.71862 35.2171 2.04656 34.9565 2.31376C34.696 2.56883 34.3733 2.69636 33.9887 2.69636ZM31.5132 18C30.6694 18 30.0179 17.8542 29.5588 17.5628L29.9683 15.9231C30.4894 16.0931 30.9113 16.1781 31.234 16.1781C32.3756 16.1781 32.9464 15.5162 32.9464 14.1923V3.98988H34.9938V14.1559C34.9938 15.4069 34.6836 16.3603 34.0631 17.0162C33.4551 17.6721 32.6051 18 31.5132 18Z" fill="white"/>
<path d="M36.5599 8.89069C36.5599 7.46964 37.0563 6.25506 38.049 5.24696C39.0541 4.23887 40.3259 3.73482 41.8646 3.73482C43.4033 3.73482 44.669 4.23887 45.6616 5.24696C46.6667 6.24291 47.1693 7.45749 47.1693 8.89069C47.1693 10.3482 46.6667 11.5749 45.6616 12.5708C44.6814 13.5668 43.4157 14.0648 41.8646 14.0648C40.3259 14.0648 39.0541 13.5668 38.049 12.5708C37.0563 11.5628 36.5599 10.336 36.5599 8.89069ZM45.1033 8.89069C45.1033 7.9919 44.7868 7.22065 44.154 6.57692C43.546 5.92105 42.7828 5.59312 41.8646 5.59312C40.9588 5.59312 40.1894 5.92105 39.5566 6.57692C38.9362 7.22065 38.626 7.9919 38.626 8.89069C38.626 9.80162 38.9362 10.5789 39.5566 11.2227C40.1894 11.8664 40.9588 12.1883 41.8646 12.1883C42.7704 12.1883 43.5336 11.8664 44.154 11.2227C44.7868 10.5789 45.1033 9.80162 45.1033 8.89069Z" fill="white"/>
<path d="M52.9809 14.0466C51.6408 14.0466 50.5737 13.664 49.7795 12.8988C48.9854 12.1336 48.5883 11.0951 48.5883 9.7834V3.98988H50.6357V9.76518C50.6357 10.5061 50.8405 11.0951 51.2499 11.5324C51.6718 11.9696 52.2488 12.1883 52.9809 12.1883C53.7255 12.1883 54.3025 11.9757 54.7119 11.5506C55.1214 11.1255 55.3262 10.5304 55.3262 9.76518V3.98988H57.3922V9.7834C57.3922 11.1194 57.0013 12.164 56.2196 12.917C55.4379 13.67 54.3583 14.0466 52.9809 14.0466Z" fill="white"/>
<path d="M61.4384 13.8097H59.391V3.98988H61.3453V5.39271C61.9409 4.28745 62.8902 3.73482 64.1931 3.73482C64.615 3.73482 65.0121 3.78947 65.3843 3.89878L65.1982 5.84818C64.8632 5.72672 64.4971 5.66599 64.1 5.66599C63.2935 5.66599 62.6482 5.9332 62.1643 6.46761C61.6804 7.00202 61.4384 7.77328 61.4384 8.78138V13.8097Z" fill="white"/>
<path d="M68.3664 13.8097H66.319V3.98988H68.3292V5.37449C68.627 4.86437 69.0551 4.46356 69.6134 4.17206C70.1718 3.88057 70.8047 3.73482 71.512 3.73482C72.6163 3.73482 73.547 4.08704 74.3039 4.7915C75.0732 5.5081 75.4579 6.52227 75.4579 7.83401V13.8097H73.3919V8.39878C73.3919 7.51215 73.1747 6.82591 72.7404 6.34008C72.3061 5.8421 71.7229 5.59312 70.9908 5.59312C70.2215 5.59312 69.5886 5.86032 69.0923 6.39474C68.6084 6.917 68.3664 7.59717 68.3664 8.43522V13.8097Z" fill="white"/>
<path d="M86.9193 8.7085C86.9193 9.02429 86.8945 9.34615 86.8448 9.67409H79.0088C79.1577 10.4636 79.5114 11.0891 80.0697 11.5506C80.6405 12.0121 81.3975 12.2429 82.3405 12.2429C82.9113 12.2429 83.5069 12.1457 84.1274 11.9514C84.7602 11.7571 85.3 11.502 85.7467 11.1862L86.6029 12.6619C85.3496 13.5729 83.904 14.0283 82.2661 14.0283C80.504 14.0283 79.1639 13.5243 78.2457 12.5162C77.3399 11.5081 76.8869 10.2935 76.8869 8.87247C76.8869 7.39069 77.3585 6.17004 78.3015 5.21053C79.257 4.23887 80.4916 3.75304 82.0055 3.75304C83.4573 3.75304 84.6361 4.19636 85.5419 5.083C86.4602 5.98178 86.9193 7.19028 86.9193 8.7085ZM82.0055 5.48381C81.2362 5.48381 80.5785 5.72065 80.0325 6.19433C79.499 6.65587 79.1577 7.26923 79.0088 8.03441H84.8533C84.7664 7.26923 84.4562 6.65587 83.9226 6.19433C83.4015 5.72065 82.7624 5.48381 82.0055 5.48381Z" fill="white"/>
<path d="M92.1793 11.0769L94.7478 3.98988H97L92.8493 14.7024C92.4026 15.8563 91.8815 16.6883 91.2858 17.1984C90.6902 17.7206 89.9643 17.9818 89.1081 17.9818C88.4008 17.9818 87.83 17.8421 87.3957 17.5628L87.6935 15.832C88.1775 16.0385 88.5932 16.1417 88.9406 16.1417C89.7472 16.1417 90.4048 15.583 90.9136 14.4656L91.23 13.7368L86.8746 3.98988H89.2384L92.1793 11.0769Z" fill="white"/>
</svg>
