<svg width="19" height="21" viewBox="0 0 19 21" fill="none" xmlns="http://www.w3.org/2000/svg">
<path d="M12.3334 15.5H17.3334L15.9284 14.095C15.7397 13.9063 15.59 13.6822 15.4879 13.4357C15.3859 13.1891 15.3333 12.9249 15.3334 12.658V9.5C15.3335 8.25894 14.949 7.04834 14.2326 6.03489C13.5163 5.02144 12.5034 4.25496 11.3334 3.841V3.5C11.3334 2.96957 11.1227 2.46086 10.7476 2.08579C10.3725 1.71071 9.86381 1.5 9.33337 1.5C8.80294 1.5 8.29423 1.71071 7.91916 2.08579C7.54409 2.46086 7.33337 2.96957 7.33337 3.5V3.841C5.00337 4.665 3.33337 6.888 3.33337 9.5V12.659C3.33337 13.197 3.11937 13.714 2.73837 14.095L1.33337 15.5H6.33337M12.3334 15.5V16.5C12.3334 17.2956 12.0173 18.0587 11.4547 18.6213C10.8921 19.1839 10.129 19.5 9.33337 19.5C8.53772 19.5 7.77466 19.1839 7.21205 18.6213C6.64944 18.0587 6.33337 17.2956 6.33337 16.5V15.5M12.3334 15.5H6.33337" stroke="#456197" stroke-width="2" stroke-linecap="round" stroke-linejoin="round"/>
</svg>
